<svg id="svg8" version="1.1" viewBox="-69.83396946564885 -15 139.6679389312977 30" width="1591" xmlns="http://www.w3.org/2000/svg" shape-rendering="optimizeSpeed" height="341.7391304347826" style="touch-action: none; -moz-user-select: none;">
	<metadata id="metadata998">
		<rdf:rdf>
			<cc:work rdf:about="">
				<dc:format>
					image/svg+xml
				</dc:format>
				<dc:type rdf:resource="http://purl.org/dc/dcmitype/StillImage"></dc:type>
				<dc:title></dc:title>
			</cc:work>
		</rdf:rdf>
	</metadata>
	<g id="arp" transform="translate(580.3285307124681,-132)">
		<rect height="279.31503" id="rect924" style="opacity:1;fill:#aaeeff;fill-opacity:1;stroke-width:0.25417414" width="562.29901" x="-800.59039" y="-52.886654"></rect>
		<path d="m -800.10192,134.20203 c 42.92492,-16.6759 67.72793,4.35011 122.19876,-4.12629 18.76119,-3.07277 55.91119,2.21528 55.91119,2.21528 12.97961,-5.83803 15.95965,3.44552 25.0502,-1.02452 10.63066,-5.22735 18.39053,-8.33355 45.42753,-6.7 12.67798,0.76599 14.05858,1.37401 22.85445,0.8671 9.96214,-0.57413 27.00975,-2.36181 36.23049,-2.99454 17.362,-1.19138 41.96299,1.8692 80.70031,4.56051 l 77.65158,7.20246 h 96.27461 v 92.22619 h -562.29912 z" id="rect815" style="opacity:1;fill:#bad25a;fill-opacity:1;stroke-width:0.25417414"></path>
		<path d="m -800.10192,134.20203 c 317.54054,30.30297 311.39181,-43.12608 562.29912,0 V 271.3295 h -562.29912 z" id="rect815-3" style="opacity:1;fill:#a1be28;fill-opacity:1;stroke-width:0.25417414"></path>
	</g>
	<g id="renderbox"><polygon points=" 23.031710247800433,15.401622345521046 17.160131106999984,14.121216816031922 -1.6886812018368769,15.483015001810164 3.266935943333493,16.960564665692832" class="sol-a"></polygon><polygon points=" -40.133614926941966,22.935725948647455 -0.9140910295518465,19.529930483595354 -6.095271057443967,17.699006728267864 -42.66018570484764,20.583056108744774" class="sol-a"></polygon><polygon points=" -21.898838735423528,27.992805260963976 20.859903544267286,23.340021278775456 13.07403696363269,20.92145688932096 -26.633879264835397,24.75696070527371" class="sol-a"></polygon><polygon points=" -22.248774159972886,32.79960885226917 -27.560120699850106,28.60883668426278 -89.68098733642091,35.368506384844416 -92.71441115552683,41.57804612380605" class="sol-a"></polygon><polygon points=" 71.16089013269136,31.789139832295586 55.83806349878678,27.808205256476455 11.841224361169083,34.217697418563404 24.052415994439464,40.05157124474954" class="sol-a"></polygon><polygon points=" -11.05241073112151,13.131691087305772 -14.380405897017093,12.114562744895128 -41.83498841091602,13.698829349469056 -39.98190578392605,14.921138239211864" class="sol-a"></polygon><polygon points=" -117.20130036176364,33.50513330200122 -53.05012522989068,27.308583523698395 -54.688224943458316,24.199638138362175 -111.86730268336171,29.16502844698236" class="sol-b"></polygon><polygon points=" -40.133614926941966,22.935725948647455 -42.66018570484764,20.583056108744774 -89.92908207214037,24.311379628668377 -92.06653240576887,27.445543404589962" class="sol-b"></polygon><polygon points=" 46.59387504399768,20.539784561907712 37.51711009495252,18.56042947668508 13.07403696363269,20.92145688932096 20.859903544267286,23.340021278775456" class="sol-b"></polygon><polygon points=" 29.751357548714047,16.866964692781572 23.031710247800433,15.401622345521046 -6.095271057443967,17.699006728267864 -0.9140910295518465,19.529930483595354" class="sol-b"></polygon><polygon points=" 3.5607777464414614,13.55432418668293 11.98560451508548,12.992816380323474 7.390950232169787,11.990867737741757 -0.683800240424026,12.490335519966171" class="sol-b"></polygon><polygon points=" -22.625472122273226,39.23882774932229 -28.680201904578475,33.600820856320766 -102.53942857787754,42.80202335591451 -108.65679153110342,51.77193316136484" class="sol-b"></polygon><polygon points=" -39.98190578392605,14.921138239211864 -41.83498841091602,13.698829349469056 -74.93127845709428,15.608650670878994 -75.29021325717024,17.10514975172861" class="sol-b"></polygon><polygon points=" -14.941426162038631,16.440505594704394 -18.582935106236764,15.030186268057792 -51.73355639234603,17.23964993248789 -50.284234880840096,18.993969234931438" class="sol-b"></polygon><polygon points=" 3.5607777464414614,13.55432418668293 -0.683800240424026,12.490335519966171 -27.49597460019795,14.148814791472304 -24.627719671860046,15.43306602487043" class="sol-c"></polygon><polygon points=" -50.284234880840096,18.993969234931438 -51.73355639234603,17.23964993248789 -93.1559432264272,20.000419820927757 -95.2400245253602,22.241955980645457" class="sol-c"></polygon><polygon points=" -81.53458077114165,34.48205659335213 -21.898838735423528,27.992805260963976 -26.633879264835397,24.75696070527371 -80.20308455943257,29.93136633123116" class="sol-c"></polygon><polygon points=" 32.24013887281003,31.245965489128142 21.28842014124594,27.375848517540774 -28.680201904578475,33.600820856320766 -22.625472122273226,39.23882774932229" class="sol-c"></polygon><polygon points=" 57.3442475462729,22.88410047180185 46.59387504399768,20.539784561907712 16.698453652852557,23.79284875233031 25.823023225005727,26.81093842780757" class="sol-d"></polygon><polygon points=" -102.64155250257616,20.632628439334997 -59.210484755762735,17.737980922574568 -59.96530655237148,16.15722012554777 -100.09336744520009,18.639359630665226" class="sol-d"></polygon><polygon points=" -53.05012522989068,27.308583523698395 -6.728534611188807,22.83424602650391 -12.061749939871504,20.497985439770943 -54.688224943458316,24.199638138362175" class="sol-d"></polygon><polygon points=" -50.45160500817085,53.11895086007444 24.052415994439464,40.05157124474954 11.841224361169083,34.217697418563404 -53.61039219743621,43.752734690339814" class="sol-d"></polygon><polygon points=" -30.804087464135474,19.647908925737564 3.266935943333493,16.960564665692832 -1.6886812018368769,15.483015001810164 -33.75725115333724,17.79991990618807" class="sol-e"></polygon><polygon points=" 25.823023225005727,26.81093842780757 16.698453652852557,23.79284875233031 -27.560120699850106,28.60883668426278 -22.248774159972886,32.79960885226917" class="sol-e"></polygon><polygon points=" 70.2781139077229,25.704567267829116 55.83806349878678,27.808205256476455 71.16089013269136,31.789139832295586 86.13588809320046,29.162648772509463" class="sol-e"></polygon><polygon points=" 28.28964246131764,19.451737739780096 20.94060642429748,17.632084318295306 -12.061749939871504,20.497985439770943 -6.728534611188807,22.83424602650391" class="sol-f"></polygon><polygon points=" -24.627719671860046,15.43306602487043 -27.49597460019795,14.148814791472304 -59.96530655237148,16.15722012554777 -59.210484755762735,17.737980922574568" class="sol-f"></polygon><polygon points=" 70.27810910085813,25.704566219604086 57.3442475462729,22.88410047180185 21.28842014124594,27.375848517540774 32.24013887281003,31.245965489128142" class="sol-f"></polygon><polygon points=" -30.804087464135474,19.647908925737564 -33.75725115333724,17.79991990618807 -74.05619074896973,20.71145637106803 -74.4315090022056,23.08901192545491" class="sol-f"></polygon><polygon points=" 7.390954622113067,11.99086869504941 3.2838792723778814,11.095245582131186 -14.380405897017093,12.114562744895128 -11.05241073112151,13.131691087305772" class="sol-f"></polygon><polygon points=" -50.45160500817085,53.11895086007444 -53.61039219743621,43.752734690339814 -161.27034018437064,59.436718554392215 -186.04614489948503,76.90110155274854" class="sol-f"></polygon><polygon points=" 87.36926679162393,-27.825522585760137 -102.71203542120458,-50.42553700649293 -79.99502926339505,-18.788081885359084 3.3058231749992917,-15.574403988877261" class="HARDwhite"></polygon><polygon points=" -55.43113048820615,-13.743611679285607 -55.48760817456875,-17.842602039040184 -85.10759393828808,-18.985316540942936 -85.01335648849216,-14.523868050963639" class="HARDblue"></polygon><polygon points=" 3.292271246524581,0.8796260954526831 3.3030429411257574,-12.194450101344712 -55.43113048820615,-13.743611679285607 -55.21285883659434,2.098044102967453" class="HARDblue"></polygon><polygon points=" -55.04251116327984,14.460971540854036 -55.21285883659434,2.098044102967453 -84.64921438638689,2.711080914330159 -84.36521209599312,16.153038099569102" class="HARDblue"></polygon><polygon points=" 3.3030429411257574,-12.194450101344712 3.305823176162154,-15.574405404594652 -55.48760817456875,-17.842602039040184 -55.43113048820615,-13.743611679285607" class="HARDblue"></polygon><polygon points=" -55.21285883659434,2.098044102967453 -55.43113048820615,-13.743611679285607 -85.01335648849216,-14.523868050963639 -84.64921438638689,2.711080914330159" class="HARDblue"></polygon><polygon points=" 3.2838751888192266,11.095245405443283 3.292271246524581,0.8796260954526831 -55.21285883659434,2.098044102967453 -55.04251116327984,14.460971540854036" class="HARDblue"></polygon><polygon points=" 66.84942309296568,-18.526344620830702 34.30077776371251,-15.283131662239665 36.792524397474324,-15.177839827866581 69.67711517292682,-18.34566674935616" class="murs-a"></polygon><polygon points=" 20.37961245015755,-13.895997621068688 7.781764659979362,-12.64072169362794 9.715845358325438,-12.585702632802702 22.52053070652066,-13.821802296592779" class="murs-a"></polygon><polygon points=" 34.30077776371251,-15.283131662239665 34.14232074657675,3.307210776341643 36.624272765561265,3.224564886922855 36.792524397474324,-15.177839827866581" class="murs-a"></polygon><polygon points=" 34.14232074657675,3.307210776341643 66.44484296185855,5.849088614177427 69.26097843196756,5.707673635169344 36.624272765561265,3.224564886922855" class="murs-a"></polygon><polygon points=" 7.781764659979362,-12.64072169362794 7.754920091567321,1.230791333459537 9.682566896604225,1.1875048961470243 9.715845358325438,-12.585702632802702" class="murs-a"></polygon><polygon points=" 7.754920091567321,1.230791333459537 20.297968379595602,2.2178017489294297 22.43105913447645,2.1594932473065755 9.682566896604225,1.1875048961470243" class="murs-a"></polygon><polygon points=" 87.36925690808806,-27.825519093855362 34.34182105265434,-20.097483473876743 66.84942309296568,-18.526344620830702" class="murs-a"></polygon><polygon points=" 66.13028097452339,24.800056216251644 66.44484296185855,5.849088614177427 34.14232074657675,3.307210776341643 34.018801399294034,17.797561081979417" class="murs-a"></polygon><polygon points=" 34.14232074657675,3.307210776341643 34.30077776371251,-15.283131662239665 20.37961245015755,-13.895997621068688 20.297968379595602,2.2178017489294297" class="murs-a"></polygon><polygon points=" 20.23426600963471,14.791591721438659 20.297968379595602,2.2178017489294297 7.754920091567321,1.230791333459537 7.733943863738264,12.065665272469243" class="murs-a"></polygon><polygon points=" 34.34182105265434,-20.097483473876743 34.30077776371251,-15.283131662239665 66.84942309296568,-18.526344620830702" class="murs-a"></polygon><polygon points=" 7.754920091567321,1.230791333459537 7.781764659979362,-12.64072169362794 3.3030429411257574,-12.194450101344712 3.292271246524581,0.8796260954526831" class="murs-a"></polygon><polygon points=" 7.733943863738264,12.065665272469243 7.754920091567321,1.230791333459537 3.292271246524581,0.8796260954526831 3.2838751888192266,11.095245405443283" class="murs-a"></polygon><polygon points=" 34.30077776371251,-15.283131662239665 34.34182105265434,-20.097483473876743 20.400739573558422,-18.06576095446582 20.37961245015755,-13.895997621068688" class="murs-a"></polygon><polygon points=" 20.37961245015755,-13.895997621068688 20.400739573558422,-18.06576095446582 7.788725751366959,-16.227729482747662 7.781764659979362,-12.64072169362794" class="murs-a"></polygon><polygon points=" 34.018801399294034,17.797561081979417 34.14232074657675,3.307210776341643 20.297968379595602,2.2178017489294297 20.23426600963471,14.791591721438659" class="murs-a"></polygon><polygon points=" 7.781764659979362,-12.64072169362794 7.788725751366959,-16.227729482747662 3.305823176162154,-15.574405404594652 3.3030429411257574,-12.194450101344712" class="murs-a"></polygon><polygon points=" 87.36925690808806,-27.825519093855362 66.84942309296568,-18.526344620830702 87.21191020299234,-20.555306546841773" class="murs-a"></polygon><polygon points=" 86.13588815732031,29.162645809849206 86.60610484716689,7.435576215932232 66.44484296185855,5.849088614177427 66.13028097452339,24.800056216251644" class="murs-a"></polygon><polygon points=" 86.60610484716689,7.435576215932232 87.21191020299234,-20.555306546841773 66.84942309296568,-18.526344620830702 66.44484296185855,5.849088614177427" class="murs-a"></polygon><polygon points="20.379611437974447,-13.895995777831569 7.781768744078808,-12.640719517943852 7.754920086163357,1.2307941262994924 20.297972245593822,2.2178028297880337" class="vitre"></polygon><polygon points="-27.238952911253723,-3.1950836654760244 -27.342004827925063,-4.610295762648921 -31.834684783508088,-4.434913072180587" class="HARDwhite"></polygon><polygon points="-27.342004827925063,-4.610295762648921 -27.623919551006086,-5.970031785636906 -31.834684783508088,-4.434913072180587" class="HARDwhite"></polygon><polygon points="-28.016677632749946,0.8741956742446981 -32.74165472814011,-0.5767813740053676 -28.604498587120307,2.091962703498622" class="HARDwhite"></polygon><polygon points="-31.834684783508088,-4.434913072180587 -32.229251908014284,-2.2786453962906594 -27.322751728467793,-1.7798696467478623 -27.238952911253723,-3.1950836654760244" class="HARDwhite"></polygon><polygon points="-27.585799751206626,-0.42000052263423515 -27.322751728467793,-1.7798696467478623 -32.229251908014284,-2.2786453962906594 -32.391317037428934,-1.648526655101574" class="HARDwhite"></polygon><polygon points="-28.073475011501664,-7.2638315042726775 -28.679872754570972,-8.48073184003011 -31.644407417491355,-7.58921326801473" class="HARDwhite"></polygon><polygon points="13.573915318323433,14.380319339526883 17.368910424566522,14.106136146050455 12.18586001196293,12.979474185886547 8.548697681947921,13.221888348991142" class="sol-f"></polygon><polygon points="-32.391317037428934,-1.648526655101574 -32.74165472814011,-0.5767813740053676 -28.016677632749946,0.8741956742446981 -27.585799751206626,-0.42000052263423515" class="HARDwhite"></polygon><polygon points="-31.644407417491355,-7.58921326801473 -31.834684783508088,-4.434913072180587 -27.623919551006086,-5.970031785636906 -28.073475011501664,-7.2638315042726775" class="HARDwhite"></polygon><polygon points="-30.208972754110647,4.252684485353863 -29.33869687348431,3.2220470979280065 -32.506604209814284,3.040613859633342" class="HARDwhite"></polygon><polygon points="-29.33869687348431,3.2220470979280065 -28.604498587120307,2.091962703498622 -32.74165472814011,-0.5767813740053676 -32.506604209814284,3.040613859633342" class="HARDwhite"></polygon><polygon points="-28.679872754570972,-8.48073184003011 -29.432557018965845,-9.609246812501546 -31.752408494998093,-9.123249543026121 -31.644407417491355,-7.58921326801473" class="HARDwhite"></polygon><polygon points="-31.20520019637138,5.171570035244251 -30.208972754110647,4.252684485353863 -32.506604209814284,3.040613859633342" class="HARDwhite"></polygon><polygon points="-29.432557018965845,-9.609246812501546 -30.321185477313726,-10.637346441879245 -31.752408494998093,-9.123249543026121" class="HARDwhite"></polygon><polygon points="-31.20520019637138,5.171570035244251 -32.506604209814284,3.040613859633342 -32.31728544298838,5.965836277255815" class="HARDwhite"></polygon><polygon points="-30.321185477313726,-10.637346441879245 -31.335437657567333,-11.552414032673749 -31.752408494998093,-9.123249543026121" class="HARDwhite"></polygon><polygon points="-33.535141208043136,6.622035728168945 -32.31728544298838,5.965836277255815 -32.506604209814284,3.040613859633342" class="HARDwhite"></polygon><polygon points="-32.464989505019894,-12.341278190016052 -32.51893116473321,-9.010102378836201 -31.752408494998093,-9.123249543026121 -31.335437657567333,-11.552414032673749" class="HARDwhite"></polygon><polygon points="-32.74165472814011,-0.5767813740053676 -33.50981775982327,1.040486991277853 -32.506604209814284,3.040613859633342" class="HARDwhite"></polygon><polygon points="-32.506604209814284,3.040613859633342 -34.23083222083074,1.8761815298293114 -33.535141208043136,6.622035728168945" class="HARDwhite"></polygon><polygon points="-33.769731829537584,0.3771546754104704 -33.50981775982327,1.040486991277853 -32.74165472814011,-0.5767813740053676" class="HARDwhite"></polygon><polygon points="-32.74165472814011,-0.5767813740053676 -34.02349165482073,-0.5895103297602682 -33.769731829537584,0.3771546754104704" class="HARDwhite"></polygon><polygon points="-32.74165472814011,-0.5767813740053676 -34.10940716434881,-1.2707370102342725 -34.02349165482073,-0.5895103297602682" class="HARDwhite"></polygon><polygon points="-32.464989505019894,-12.341278190016052 -33.69938711040141,-12.990164803616011 -33.393687929920645,-8.741015804128047 -32.51893116473321,-9.010102378836201" class="HARDwhite"></polygon><polygon points="-34.84857154253378,7.126136804726832 -33.535141208043136,6.622035728168945 -34.23083222083074,1.8761815298293114 -36.55693934970751,2.093928508845541" class="HARDwhite"></polygon><polygon points="-34.23083222083074,1.8761815298293114 -34.80272639711545,1.6268371880898647 -36.55693934970751,2.093928508845541" class="HARDwhite"></polygon><polygon points="-34.80272639711545,1.6268371880898647 -35.09637464577887,1.5451509831283539 -36.55693934970751,2.093928508845541" class="HARDwhite"></polygon><polygon points="-36.87810071200813,-9.374145623877952 -34.29954139254465,-8.304728935685336 -33.393687929920645,-8.741015804128047" class="HARDwhite"></polygon><polygon points="-36.87810071200813,-9.374145623877952 -33.393687929920645,-8.741015804128047 -33.69938711040141,-12.990164803616011 -35.02799082343696,-13.484739053863395" class="HARDwhite"></polygon><polygon points="-35.09637464577887,1.5451509831283539 -35.39765341523837,1.497195550836167 -36.55693934970751,2.093928508845541" class="HARDwhite"></polygon><polygon points="-35.39765341523837,1.497195550836167 -35.708421783236155,1.4867867046589807 -36.55693934970751,2.093928508845541" class="HARDwhite"></polygon><polygon points="-36.87810071200813,-9.374145623877952 -34.73957710630366,-8.02040458617936 -34.29954139254465,-8.304728935685336" class="HARDwhite"></polygon><polygon points="-36.55693934970751,2.093928508845541 -35.708421783236155,1.4867867046589807 -36.03058049843003,1.517761624406374" class="HARDwhite"></polygon><polygon points="-36.87810071200813,-9.374145623877952 -35.15768213243877,-7.690170933475288 -34.73957710630366,-8.02040458617936" class="HARDwhite"></polygon><polygon points="-36.24720624717249,7.4635096692098974 -34.84857154253378,7.126136804726832 -36.55693934970751,2.093928508845541 -38.68858484259113,2.937161153929386" class="HARDwhite"></polygon><polygon points="-36.55693934970751,2.093928508845541 -36.03058049843003,1.517761624406374 -36.7656068660358,1.7126393070662487" class="HARDwhite"></polygon><polygon points="-36.03058049843003,1.517761624406374 -36.337711023395606,0.2286129771860101 -36.93569420299089,1.0894723847006091" class="HARDwhite"></polygon><polygon points="-36.87810071200813,-9.374145623877952 -35.54376310027846,-7.312740624458779 -35.15768213243877,-7.690170933475288" class="HARDwhite"></polygon><polygon points="-36.03058049843003,1.517761624406374 -36.93569420299089,1.0894723847006091 -36.7656068660358,1.7126393070662487" class="HARDwhite"></polygon><polygon points="-36.87810071200813,-9.374145623877952 -35.88761722494766,-6.886912510437012 -35.54376310027846,-7.312740624458779" class="HARDwhite"></polygon><polygon points="-37.16659744261781,-0.7187987085447665 -36.337711023395606,0.2286129771860101 -36.56556203301286,-2.256952998165141" class="HARDwhite"></polygon><polygon points="-36.93569420299089,1.0894723847006091 -36.337711023395606,0.2286129771860101 -37.16659744261781,-0.7187987085447665" class="HARDwhite"></polygon><polygon points="-36.87810071200813,-9.374145623877952 -36.17901760967569,-6.411558949773335 -35.88761722494766,-6.886912510437012" class="HARDwhite"></polygon><polygon points="-36.55693934970751,2.093928508845541 -36.77817586385618,1.9860679948184707 -37.69126001458398,2.057978851672026" class="HARDwhite"></polygon><polygon points="-35.02799082343696,-13.484739053863395 -36.43987391040476,-13.810104578274123 -36.87810071200813,-9.374145623877952" class="HARDwhite"></polygon><polygon points="-36.98329099777618,1.9244775151834457 -37.69126001458398,2.057978851672026 -36.77817586385618,1.9860679948184707" class="HARDwhite"></polygon><polygon points="-37.237571856068136,-5.427172216788322 -36.407689307822544,-5.885664515498668 -36.17901760967569,-6.411558949773335" class="HARDwhite"></polygon><polygon points="-36.98329099777618,1.9244775151834457 -37.17470117009334,1.905030177300662 -37.35486106894626,1.9235820461416937" class="HARDwhite"></polygon><polygon points="-37.237571856068136,-5.427172216788322 -36.56556203301286,-2.256952998165141 -36.407689307822544,-5.885664515498668" class="HARDwhite"></polygon><polygon points="-38.68858484259113,2.937161153929386 -37.72042999883273,7.618945236762162 -36.24720624717249,7.4635096692098974" class="HARDwhite"></polygon><polygon points="-37.35486106894626,1.9235820461416937 -37.52622232555408,1.9759601271174358 -36.98329099777618,1.9244775151834457" class="HARDwhite"></polygon><polygon points="-37.237571856068136,-5.427172216788322 -37.16659744261781,-0.7187987085447665 -36.56556203301286,-2.256952998165141" class="HARDwhite"></polygon><polygon points="-37.69126001458398,2.057978851672026 -37.85245598478818,2.1654440043406606 -36.55693934970751,2.093928508845541" class="HARDwhite"></polygon><polygon points="-36.87810071200813,-9.374145623877952 -37.237571856068136,-5.427172216788322 -36.17901760967569,-6.411558949773335" class="HARDwhite"></polygon><polygon points="-37.52622232555408,1.9759601271174358 -37.69126001458398,2.057978851672026 -36.98329099777618,1.9244775151834457" class="HARDwhite"></polygon><polygon points="-36.55693934970751,2.093928508845541 -37.85245598478818,2.1654440043406606 -38.68858484259113,2.937161153929386" class="HARDwhite"></polygon><polygon points="-36.43987391040476,-13.810104578274123 -37.92376135082249,-13.950839705258947 -36.87810071200813,-9.374145623877952" class="HARDwhite"></polygon><polygon points="-37.30754536568673,-8.955484293751235 -37.184776581395184,-9.059454790889982 -37.818398737105476,-8.822820811892527" class="HARDwhite"></polygon><polygon points="-39.20926251031034,7.579064198712983 -37.72042999883273,7.618945236762162 -38.68858484259113,2.937161153929386" class="HARDwhite"></polygon><polygon points="-38.41002871133869,-8.959907368985782 -37.184776581395184,-9.059454790889982 -36.87810071200813,-9.374145623877952" class="HARDwhite"></polygon><polygon points="-37.61431305603698,-8.81317869014807 -37.517236188458156,-8.836020431778753 -37.41667087152926,-8.882226142329014" class="HARDwhite"></polygon><polygon points="-37.41667087152926,-8.882226142329014 -37.30754536568673,-8.955484293751235 -37.818398737105476,-8.822820811892527" class="HARDwhite"></polygon><polygon points="-37.71299636848276,-8.810012657282108 -37.61431305603698,-8.81317869014807 -37.41667087152926,-8.882226142329014" class="HARDwhite"></polygon><polygon points="-37.818398737105476,-8.822820811892527 -37.71299636848276,-8.810012657282108 -37.41667087152926,-8.882226142329014" class="HARDwhite"></polygon><polygon points="-38.210151345114745,0.6739173533434388 -38.069078825909244,-0.5318198896521095 -38.84388849948052,-0.7287235815446433" class="HARDwhite"></polygon><polygon points="-38.06529690640734,-1.0362725165168867 -38.11202706695344,-1.47174537742405 -38.83798049053545,-1.1779791549976566" class="HARDwhite"></polygon><polygon points="-38.41002871133869,-8.959907368985782 -37.818398737105476,-8.822820811892527 -37.184776581395184,-9.059454790889982" class="HARDwhite"></polygon><polygon points="-38.06529690640734,-1.0362725165168867 -38.83798049053545,-1.1779791549976566 -38.84388849948052,-0.7287235815446433 -38.069078825909244,-0.5318198896521095" class="HARDwhite"></polygon><polygon points="-38.68858484259113,2.937161153929386 -38.210151345114745,0.6739173533434388 -39.27072141405512,2.105297345547265" class="HARDwhite"></polygon><polygon points="-38.11202706695344,-1.47174537742405 -38.213821153408176,-1.835682577430506 -38.877992243473166,-1.5369653076133656 -38.83798049053545,-1.1779791549976566" class="HARDwhite"></polygon><polygon points="-38.210151345114745,0.6739173533434388 -38.84388849948052,-0.7287235815446433 -39.27072141405512,2.105297345547265" class="HARDwhite"></polygon><polygon points="-38.966773927304565,-1.8123153334345674 -38.877992243473166,-1.5369653076133656 -38.213821153408176,-1.835682577430506 -38.37531667652377,-2.1254696190308104" class="HARDwhite"></polygon><polygon points="-38.37531667652377,-2.1254696190308104 -38.601226686183495,-2.3384289723131495 -39.10720939244685,-2.010606226490407 -38.966773927304565,-1.8123153334345674" class="HARDwhite"></polygon><polygon points="-39.419696964266244,-13.893999911002775 -38.41002871133869,-8.959907368985782 -36.87810071200813,-9.374145623877952 -37.92376135082249,-13.950839705258947" class="HARDwhite"></polygon><polygon points="-38.32247465550698,-5.4272815262199074 -38.22264336527002,-6.576230785394837 -39.10760444705954,-5.885293389421593" class="HARDwhite"></polygon><polygon points="-38.601226686183495,-2.3384289723131495 -38.89633984116156,-2.4718088267323095 -39.10720939244685,-2.010606226490407" class="HARDwhite"></polygon><polygon points="-38.536662996880025,-4.34791125236174 -38.32247465550698,-5.4272815262199074 -39.09594775706117,-5.110823322054969 -39.1606628409652,-4.729760024114863" class="HARDwhite"></polygon><polygon points="-39.09594775706117,-5.110823322054969 -38.32247465550698,-5.4272815262199074 -39.07580318323992,-5.49592488529566" class="HARDwhite"></polygon><polygon points="-38.32247465550698,-5.4272815262199074 -39.10760444705954,-5.885293389421593 -39.07580318323992,-5.49592488529566" class="HARDwhite"></polygon><polygon points="-39.10760444705954,-5.885293389421593 -38.22264336527002,-6.576230785394837 -39.19876629670807,-6.279203053908712" class="HARDwhite"></polygon><polygon points="-39.1606628409652,-4.729760024114863 -39.262627130707294,-4.352532655842272 -38.536662996880025,-4.34791125236174" class="HARDwhite"></polygon><polygon points="-39.30227180893791,-2.1383862769950888 -39.10720939244685,-2.010606226490407 -38.89633984116156,-2.4718088267323095 -39.265561309154386,-2.5227532429266883" class="HARDwhite"></polygon><polygon points="-38.22264336527002,-6.576230785394837 -38.24809408326569,-7.763975341412518 -39.63674460486339,-7.089799330268514 -39.35680278465007,-6.677976072425081" class="HARDwhite"></polygon><polygon points="-38.85453639973884,-3.3692349082980475 -38.536662996880025,-4.34791125236174 -39.262627130707294,-4.352532655842272 -39.718699496599044,-3.2424739968582905" class="HARDwhite"></polygon><polygon points="-38.22264336527002,-6.576230785394837 -39.35680278465007,-6.677976072425081 -39.19876629670807,-6.279203053908712" class="HARDwhite"></polygon><polygon points="-39.718699496599044,-3.2424739968582905 -39.049049530865325,-2.9274823700172052 -38.85453639973884,-3.3692349082980475" class="HARDwhite"></polygon><polygon points="-39.265561309154386,-2.5227532429266883 -39.55496984343226,-2.202151067655311 -39.30227180893791,-2.1383862769950888" class="HARDwhite"></polygon><polygon points="-38.24809408326569,-7.763975341412518 -38.41002871133869,-8.959907368985782 -39.9404727069771,-7.443415997614583 -39.63674460486339,-7.089799330268514" class="HARDwhite"></polygon><polygon points="-38.68858484259113,2.937161153929386 -39.27072141405512,2.105297345547265 -41.67837310787761,3.4261224603335836" class="HARDwhite"></polygon><polygon points="-40.65239460709357,7.3473524675268 -39.20926251031034,7.579064198712983 -38.68858484259113,2.937161153929386 -41.67837310787761,3.4261224603335836" class="HARDwhite"></polygon><polygon points="-39.049049530865325,-2.9274823700172052 -39.718699496599044,-3.2424739968582905 -39.8963306107225,-2.879376121180719 -39.265561309154386,-2.5227532429266883" class="HARDwhite"></polygon><polygon points="-39.265561309154386,-2.5227532429266883 -39.8963306107225,-2.879376121180719 -39.55496984343226,-2.202151067655311" class="HARDwhite"></polygon><polygon points="-39.8963306107225,-2.879376121180719 -39.86838493691533,-2.2083503800322517 -39.55496984343226,-2.202151067655311" class="HARDwhite"></polygon><polygon points="-40.26398580747283,-7.743153465793814 -39.9404727069771,-7.443415997614583 -38.41002871133869,-8.959907368985782" class="HARDwhite"></polygon><polygon points="-39.8963306107225,-2.879376121180719 -40.24570380038028,-2.1634072035933483 -39.86838493691533,-2.2083503800322517" class="HARDwhite"></polygon><polygon points="-40.60324193685488,-7.9933267548446825 -40.26398580747283,-7.743153465793814 -38.41002871133869,-8.959907368985782" class="HARDwhite"></polygon><polygon points="-38.41002871133869,-8.959907368985782 -39.419696964266244,-13.893999911002775 -40.86569303673202,-13.643807801017173" class="HARDwhite"></polygon><polygon points="-40.95418467132668,-8.198252667982867 -40.60324193685488,-7.9933267548446825 -38.41002871133869,-8.959907368985782" class="HARDwhite"></polygon><polygon points="-41.31274172803324,-8.362236998558107 -40.95418467132668,-8.198252667982867 -38.41002871133869,-8.959907368985782" class="HARDwhite"></polygon><polygon points="-42.33717838380855,3.7157058987131864 -42.03507178971897,6.93372204785084 -40.65239460709357,7.3473524675268 -41.67837310787761,3.4261224603335836" class="HARDwhite"></polygon><polygon points="-40.86569303673202,-13.643807801017173 -42.246741229071105,-13.210605021943865 -41.31274172803324,-8.362236998558107 -38.41002871133869,-8.959907368985782" class="HARDwhite"></polygon><polygon points="2.4690447521968846,-0.29920617939483757 2.2237881562554254,-0.31473587866999037 -2.085912967317536,-0.24383929852424036 -1.8517013167662464,-0.22782362605452686" class="HARDwhite"></polygon><polygon points="-41.81110502635863,0.503484796420931 -41.806923131736426,0.08906759600974364 -43.192989494223475,-0.38070129599777064" class="HARDwhite"></polygon><polygon points="-41.86824681933008,0.930241776360517 -41.81110502635863,0.503484796420931 -43.192989494223475,-0.38070129599777064" class="HARDwhite"></polygon><polygon points="-41.806923131736426,0.08906759600974364 -41.85934790379428,-0.31014655873976277 -43.192989494223475,-0.38070129599777064" class="HARDwhite"></polygon><polygon points="-41.974750063030065,1.3664633752456676 -41.86824681933008,0.930241776360517 -43.192989494223475,-0.38070129599777064" class="HARDwhite"></polygon><polygon points="-43.34208127462948,6.348550393013471 -42.03507178971897,6.93372204785084 -42.33717838380855,3.7157058987131864 -43.05722025394258,3.938345171099252" class="HARDwhite"></polygon><polygon points="-42.12706651019368,1.8092704511411086 -41.974750063030065,1.3664633752456676 -43.192989494223475,-0.38070129599777064" class="HARDwhite"></polygon><polygon points="-41.85934790379428,-0.31014655873976277 -41.97206948492783,-0.6912926582512439 -43.192989494223475,-0.38070129599777064" class="HARDwhite"></polygon><polygon points="-41.97206948492783,-0.6912926582512439 -42.148864634232524,-1.0514990187358606 -43.192989494223475,-0.38070129599777064" class="HARDwhite"></polygon><polygon points="-42.555096696628155,2.7030151673361718 -42.12706651019368,1.8092704511411086 -43.192989494223475,-0.38070129599777064" class="HARDwhite"></polygon><polygon points="-42.036114024550834,-8.584679904975301 -41.31274172803324,-8.362236998558107 -42.246741229071105,-13.210605021943865" class="HARDwhite"></polygon><polygon points="-43.45319722109809,4.019779612381486 -43.34208127462948,6.348550393013471 -43.05722025394258,3.938345171099252" class="HARDwhite"></polygon><polygon points="-42.036114024550834,-8.584679904975301 -42.246741229071105,-13.210605021943865 -43.5474221776393,-12.605243133723427 -42.73991158578094,-8.69539763329122" class="HARDwhite"></polygon><polygon points="-44.557821680420915,5.602718015987503 -43.34208127462948,6.348550393013471 -43.45319722109809,4.019779612381486" class="HARDwhite"></polygon><polygon points="4.461773043508211,0.21633137444717265 3.2462208170293976,0.13300765985260074 2.4945008958768953,0.08147898519823901" class="HARDwhite"></polygon><polygon points="4.3030493251888355,0.1021292650846233 4.303922715821208,-0.7115727140342449 4.295467503545347,-0.7030159874505296 4.2945940435712995,0.11235067527818672" class="metal"></polygon><polygon points="-43.39014411386672,-8.729440106919734 -42.73991158578094,-8.69539763329122 -43.5474221776393,-12.605243133723427" class="HARDwhite"></polygon><polygon points="4.2945940435712995,0.11235067527818672 4.295467503545347,-0.7030159874505296 4.051016244881199,-0.707744596308754 4.0501934231079755,0.10670213184002394" class="metal"></polygon><polygon points="-43.45319722109809,4.019779612381486 -42.555096696628155,2.7030151673361718 -46.6515142718646,3.6754683340089302" class="HARDwhite"></polygon><polygon points="4.304541451208868,-1.2880229195082091 4.3084305040259085,-4.911292802227408 4.299975661185525,-4.911338703257376 4.2960862884961,-1.2806459135305872" class="metal"></polygon><polygon points="-2.085319003232906,0.897815077604958 -1.8511722272307654,0.9177609196392175 -1.8517013167662464,-0.22782362605452686 -2.085912967317536,-0.24383929852424036" class="HARDwhite"></polygon><polygon points="4.2960862884961,-1.2806459135305872 4.299975661185525,-4.911338703257376 4.055263039380962,-4.9113133374562 4.051599155999897,-1.2847225870186616" class="metal"></polygon><polygon points="-45.6663546499758,4.707668724803198 -44.557821680420915,5.602718015987503 -43.45319722109809,4.019779612381486" class="HARDwhite"></polygon><polygon points="4.245525568944772,0.1267296948088576 5.191075189677247,0.1905926433767104 5.0909538626120145,0.15157863246462658" class="HARDwhite"></polygon><polygon points="-43.5474221776393,-12.605243133723427 -44.75206336063676,-11.839191750689489 -43.8845936938868,-8.72515758903797 -43.39014411386672,-8.729440106919734" class="HARDwhite"></polygon><polygon points="-42.555096696628155,2.7030151673361718 -43.192989494223475,-0.38070129599777064 -47.49699147055365,2.5188345274014696 -46.6515142718646,3.6754683340089302" class="HARDwhite"></polygon><polygon points="5.198528969310124,-0.6694405248810482 4.680094741529765,-0.6614884405144558 3.735492171728401,-0.7149486872629264 4.249136831845853,-0.722701102119093" class="HARDwhite"></polygon><polygon points="-46.6515142718646,3.6754683340089302 -45.6663546499758,4.707668724803198 -43.45319722109809,4.019779612381486" class="HARDwhite"></polygon><polygon points="3.7360274680887935,-1.289552009348229 4.680773990651275,-1.243444672143789 5.199282042317856,-1.250303047723355 4.249744602439242,-1.2962381530427793" class="HARDwhite"></polygon><polygon points="4.461773043508211,0.21633137444717265 5.191075189677247,0.1905926433767104 4.245525568944772,0.1267296948088576 3.2462208170293976,0.13300765985260074" class="HARDwhite"></polygon><polygon points="4.680094741529765,-0.6614884405144558 4.680773990651275,-1.243444672143789 3.7360274680887935,-1.289552009348229 3.735492171728401,-0.7149486872629264" class="HARDwhite"></polygon><polygon points="6.413597825537795,0.5958840740931032 -5.086169988742624,0.826191637214114 0.6128619350608506,1.3278242151560167 12.828981360510001,1.0562730818556907" class="etabli-a"></polygon><polygon points="5.191075189677247,0.1905926433767104 5.190078073399124,0.9606304894702141 5.089983488310558,0.9157098376532179 5.0909538626120145,0.15157863246462658" class="HARDwhite"></polygon><polygon points="4.021806752667215,-1.0202135322768728 2.026964759597834,-0.9922782238077156 1.9116052718338996,-0.8538752696001702 3.904033681179298,-0.8827557144011524" class="metal"></polygon><polygon points="3.9043133136316444,-1.1699751753814023 1.9117431806085998,-1.1431632566952195 2.026964759597834,-0.9922782238077156 4.021806752667215,-1.0202135322768728" class="metal"></polygon><polygon points="-45.84475212552085,-10.924526633895585 -43.8845936938868,-8.72515758903797 -44.75206336063676,-11.839191750689489" class="HARDwhite"></polygon><polygon points="-44.368792806863,-7.4404290824690245 -44.16753097403988,-8.102640859081113 -47.63011604710861,-8.700938334410516" class="HARDwhite"></polygon><polygon points="-48.7037715682878,-0.1135202651846526 -48.18647272167346,1.2511523258248938 -43.192989494223475,-0.38070129599777064 -43.746355302449075,-1.6690007834938827" class="HARDwhite"></polygon><polygon points="4.8065683001653845,0.13594430502035595 4.807550501035283,-0.6832646676606267 4.800078259806407,-0.6745912498408414 4.799095563485346,0.14630507936079878" class="metal"></polygon><polygon points="4.799095563485346,0.14630507936079878 4.800078259806407,-0.6745912498408414 4.553394891490988,-0.6793843750606964 4.552463757445874,0.14057948416184704" class="metal"></polygon><polygon points="-43.8845936938868,-8.72515758903797 -45.84475212552085,-10.924526633895585 -46.80945220216028,-9.873976323080997" class="HARDwhite"></polygon><polygon points="-48.18647272167346,1.2511523258248938 -47.49699147055365,2.5188345274014696 -43.192989494223475,-0.38070129599777064" class="HARDwhite"></polygon><polygon points="-44.16753097403988,-8.102640859081113 -43.8845936938868,-8.72515758903797 -46.80945220216028,-9.873976323080997 -47.63011604710861,-8.700938334410516" class="HARDwhite"></polygon><polygon points="4.808246322743398,-1.2636178358815853 4.812619930450181,-4.91144465643321 4.805150259558371,-4.911491184094278 4.800774433008697,-1.2561402126282377" class="metal"></polygon><polygon points="4.800774433008697,-1.2561402126282377 4.805150259558371,-4.911491184094278 4.558200755489224,-4.911465471840206 4.554054536081276,-1.2602725155024992" class="metal"></polygon><polygon points="-1.8766855745814002,0.15969171305345786 -1.8763272883811999,0.9250512473606618 -1.1588276729581746,0.9862724468428135 -1.159051282704961,0.2128633980661542" class="HARDwhite"></polygon><polygon points="-43.746355302449075,-1.6690007834938827 -44.18947560429853,-3.08050040735436 -49.0329815318981,-1.5604690604432616 -48.7037715682878,-0.1135202651846526" class="HARDwhite"></polygon><polygon points="4.461773043508211,0.21633137444717265 2.4945008958768953,0.08147898519823901 5.255056448174074,0.27070937675538176" class="HARDwhite"></polygon><polygon points="-47.63011604710861,-8.700938334410516 -48.29082974535682,-7.419457499993717 -44.49412237157525,-6.746518225335422 -44.368792806863,-7.4404290824690245" class="HARDwhite"></polygon><polygon points="-44.18947560429853,-3.08050040735436 -44.47345610947305,-4.554510928341899 -49.0700704934516,-4.590584433754112 -49.15866219849088,-3.0743491997032937" class="HARDwhite"></polygon><polygon points="-44.549356921817754,-6.02891343068457 -44.49412237157525,-6.746518225335422 -48.29082974535682,-7.419457499993717 -48.775897006889494,-6.044242407656073" class="HARDwhite"></polygon><polygon points="5.198528969310124,-0.6694405248810482 5.199282042317856,-1.250303047723355 4.680773990651275,-1.243444672143789 4.680094741529765,-0.6614884405144558" class="HARDwhite"></polygon><polygon points="-48.775897006889494,-6.044242407656073 -49.0700704934516,-4.590584433754112 -44.47345610947305,-4.554510928341899 -44.549356921817754,-6.02891343068457" class="HARDwhite"></polygon><polygon points="4.461773043508211,0.21633137444717265 4.460911671884771,0.9902652930391203 5.190078073399124,0.9606304894702141 5.191075189677247,0.1905926433767104" class="HARDwhite"></polygon><polygon points="-49.15866219849088,-3.0743491997032937 -49.0329815318981,-1.5604690604432616 -44.18947560429853,-3.08050040735436" class="HARDwhite"></polygon><polygon points="4.52510230315549,-0.9939143779738888 2.5202591944160946,-0.9655966798577765 2.403298388499056,-0.8262915534824108 4.40570660221457,-0.8555667841387959" class="metal"></polygon><polygon points="4.406024309599,-1.1447337244652636 2.4034729547763023,-1.117555270120125 2.5202591944160946,-0.9655966798577765 4.52510230315549,-0.9939143779738888" class="metal"></polygon><polygon points="2.653609940007489,-0.5548528094305007 2.1464286669646726,-0.5469350738218429 1.2615082470799268,-0.6001807739916308 1.7640781322003292,-0.607905611879067" class="orange"></polygon><polygon points="1.2617988323587757,-1.5237995586882505 2.1469292313138335,-1.4820111167695003 2.654227654417222,-1.4882252634366828 1.7644837511128495,-1.5298621717755192" class="orange"></polygon><polygon points="2.1464286669646726,-0.5469350738218429 2.1469292313138335,-1.4820111167695003 1.2617988323587757,-1.5237995586882505 1.2615082470799268,-0.6001807739916308" class="orange"></polygon><polygon points="-1.6168287161988013,-0.3712752911528101 0.5189412067930342,-0.230210156683771 4.950209164731169,-0.30400105148708706 2.7151413314802184,-0.44069833889433147" class="metal"></polygon><polygon points="1.53006914917655,-0.9853196719504329 -1.1764775963356329,-0.9474177751153438 -1.287859261986335,-0.8074983494247991 1.4153170077514023,-0.8466813449914146" class="metal"></polygon><polygon points="1.4154192949369466,-1.1364847231768869 -1.2879532398507105,-1.1001081460921727 -1.1764775963356329,-0.9474177751153438 1.53006914917655,-0.9853196719504329" class="metal"></polygon><polygon points="0.0018831211157222826,0.29888092965957225 -1.159051282704961,0.2128633980661542 -1.8766855745814002,0.15969171305345786" class="HARDwhite"></polygon><polygon points="2.653609940007489,-0.5548528094305007 2.654227654417222,-1.4882252634366828 2.1469292313138335,-1.4820111167695003 2.1464286669646726,-0.5469350738218429" class="orange"></polygon><polygon points="-1.4082093386165253,0.20541664995593945 -1.4085010793399568,-0.6251066354697287 -1.4290740543676201,-0.6161914228421436 -1.42877743361041,0.21606619884878553" class="metal"></polygon><polygon points="-1.42877743361041,0.21606619884878553 -1.4290740543676201,-0.6161914228421436 -1.6719914359105066,-0.6211183148042485 -1.671644794948644,0.21018084660130673" class="metal"></polygon><polygon points="-1.4087077584572716,-1.2134777669390635 -1.4100068652339646,-4.911756209550701 -1.4306050320750368,-4.911804034785409 -1.4292841908234297,-1.205791653748185" class="metal"></polygon><polygon points="-1.4292841908234297,-1.205791653748185 -1.4306050320750368,-4.911804034785409 -1.673780585151021,-4.911777604681054 -1.6722370083177265,-1.2100392983170325" class="metal"></polygon><polygon points="2.020844358893572,-0.9585423452046192 -0.6996501509499,-0.9201161378444256 -0.8126013866997962,-0.7792746898237379 1.9044962907207037,-0.8189988820901525" class="metal"></polygon><polygon points="1.9046348742888901,-1.1107849489970318 -0.8126610940544596,-1.07390600929775 -0.6996501509499,-0.9201161378444256 2.020844358893572,-0.9585423452046192" class="metal"></polygon><polygon points="-1.9235130778579388,1.0161680802270971 -1.8768961755948261,1.0626624657179082 -1.877263054930769,0.27921099270282446 -1.9238861316888842,0.23882900695920095" class="HARDwhite"></polygon><polygon points="0.0018831211157222826,0.29888092965957225 -1.0372626695570923,0.30559767465947524 -1.9238861316888842,0.23882900695920095 -1.159051282704961,0.2128633980661542" class="HARDwhite"></polygon><polygon points="-0.5412795478231103,-0.581398391734466 -1.081594031803046,-0.573110571137745 -1.9713220524985808,-0.628814738007128 -1.4362824386152921,-0.63689018485739" class="HARDwhite"></polygon><polygon points="-1.9716103734619899,-1.2152647287130485 -1.0817542920252514,-1.1672218105946321 -0.5413595953936077,-1.1743697894196696 -1.4364921076708081,-1.2222295155280856" class="HARDwhite"></polygon><polygon points="0.0018831211157222826,0.29888092965957225 -1.8766855745814002,0.15969171305345786 0.7598508801860583,0.3550412307692097" class="HARDwhite"></polygon><polygon points="-1.081594031803046,-0.573110571137745 -1.0817542920252514,-1.1672218105946321 -1.9716103734619899,-1.2152647287130485 -1.9713220524985808,-0.628814738007128" class="HARDwhite"></polygon><polygon points="-1.9238861316888842,0.23882900695920095 -1.0372626695570923,0.30559767465947524 -1.877263054930769,0.27921099270282446" class="HARDwhite"></polygon><polygon points="-0.9336993927685048,0.24065069207051834 -0.9338941666974591,-0.5956104346996252 -0.9536089550508376,-0.5865713410238754 -0.9534096507396302,0.25144818995922225" class="metal"></polygon><polygon points="-0.9534096507396302,0.25144818995922225 -0.9536089550508376,-0.5865713410238754 -1.1987604679726211,-0.5915666202850606 -1.1985102178179243,0.24548116399228692" class="metal"></polygon><polygon points="-0.9340321516229683,-1.1880481901173672 -0.9348994788697235,-4.911914441335322 -0.9546376532611279,-4.911962931842769 -0.953750149569601,-1.1802552592217734" class="metal"></polygon><polygon points="-0.953750149569601,-1.1802552592217734 -0.9546376532611279,-4.911962931842769 -1.2000521184131123,-4.911936134480057 -1.1989377543308553,-1.184561871466372" class="metal"></polygon><polygon points="-1.8768961755948261,1.0626624657179082 -1.0370589191511352,1.0930438160571898 -1.0372626695570923,0.30559767465947524 -1.877263054930769,0.27921099270282446" class="HARDwhite"></polygon><polygon points="-1.0372626695570923,0.30559767465947524 -1.0370589191511352,1.0930438160571898 0.0018827516908166656,1.085310382791049 0.0018831211157222826,0.29888092965957225" class="HARDwhite"></polygon><polygon points="-0.5412795478231103,-0.581398391734466 -0.5413595953936077,-1.1743697894196696 -1.0817542920252514,-1.1672218105946321 -1.081594031803046,-0.573110571137745" class="HARDwhite"></polygon><polygon points="5.497515252837994,-0.10744349904654005 5.231373898124573,-0.12429562314339643 0.7879301759780546,-0.04732318911902429 1.0424155248686378,-0.029921179517308657" class="HARDwhite"></polygon><polygon points="0.7597002015899048,1.14997136872586 0.7598508801860583,0.3550412307692097 0.0018831211157222826,0.29888092965957225 0.0018827516908166656,1.085310382791049" class="HARDwhite"></polygon><polygon points="1.0421050311909408,1.1642301394704118 5.495903881583872,1.0676841332502063 5.497515252837994,-0.10744349904654005 1.0424155248686378,-0.029921179517308657" class="HARDwhite"></polygon><polygon points="0.7876963235357324,1.142557821799998 1.0421050311909408,1.1642301394704118 1.0424155248686378,-0.029921179517308657 0.7879301759780546,-0.04732318911902429" class="HARDwhite"></polygon><polygon points="12.828981360510001,1.0562730818556907 0.6128619350608506,1.3278242151560167 0.6106656944074652,15.695262665851681 12.784992569192703,14.799212964404635" class="etabli-c"></polygon><polygon points="-5.086169988742624,0.826191637214114 -20.443730771660366,1.1337597606549843 -15.836770916614658,1.693481756197959 0.6128619350608506,1.3278242151560167" class="etabli-a"></polygon><polygon points="-10.677279863236336,0.6651870033573819 -15.929325109549845,0.8301259636221754 -12.967524888999234,0.9959299220043756 -7.65555084937552,0.8214348861067122" class="pc"></polygon><polygon points="-10.638175257038407,1.0259821284764696 -7.654846516852902,1.190205693600127 -12.966295385456043,1.37595217184216 -15.890498101030202,1.2016835670512664" class="pc"></polygon><polygon points="-7.65555084937552,0.8214348861067122 -12.967524888999234,0.9959299220043756 -12.966295385456043,1.37595217184216 -7.654846516852902,1.190205693600127" class="pc"></polygon><polygon points="-7.655586858965248,0.8025811699215226 -7.58407229201182,0.8394866114269144 -12.897384899757178,1.0146494914730073 -12.967586014136044,0.9765011175037162" class="pc"></polygon><polygon points="-12.967524888999234,0.9959299220043756 -15.929325109549845,0.8301259636221754 -15.890498101030202,1.2016835670512664 -12.966295385456043,1.37595217184216" class="pc"></polygon><polygon points="-12.897384899757178,1.0146494914730073 -7.58407229201182,0.8394866114269144 -6.745904559879418,-4.122740937496517 -12.082207568594427,-4.09909738717407" class="pc"></polygon><polygon points="-15.836770916614658,1.693481756197959 -20.443730771660366,1.1337597606549843 -20.372722427337806,15.05493135033087 -15.776668541020626,16.901393907471206" class="etabli-b"></polygon><polygon points="-12.082207568594427,-4.09909738717407 -6.745904559879418,-4.122740937496517 -6.81859716714177,-4.1567793884738995 -12.153600101027003,-4.134201213455731" class="pc"></polygon><polygon points="-12.967586014136044,0.9765011175037162 -12.897384899757178,1.0146494914730073 -12.082207568594427,-4.09909738717407 -12.153600101027003,-4.134201213455731" class="pc"></polygon><polygon points="0.6128619350608506,1.3278242151560167 -15.836770916614658,1.693481756197959 -15.776668541020626,16.901393907471206 0.6106656944074652,15.695262665851681" class="etabli-c"></polygon><polygon points="22.461255017719786,5.520857504598384 19.925122271998827,5.355303425488342 20.526715409372642,5.5889355499512465" class="siege-b"></polygon><polygon points="10.463290387625195,6.141371877227425 20.526715409372642,5.5889355499512465 19.925122271998827,5.355303425488342" class="siege-b"></polygon><polygon points="22.853153933924535,2.430969627232234 21.072816334264278,1.9269327651641994 31.628094645038885,2.3820397007818412 33.359767760738556,2.9120603047807534" class="siege-b"></polygon><polygon points="19.689941077831254,11.200096094507614 20.526715409372642,5.5889355499512465 13.032569311771796,6.333546232125606 13.020766875751697,12.030285846713006" class="siege-a"></polygon><polygon points="31.628094645038885,2.3820397007818412 21.072816334264278,1.9269327651641994 20.526715409372642,5.5889355499512465 31.08377344145795,6.291106056416599" class="siege-c"></polygon><polygon points="10.463290387625195,6.141371877227425 13.032569311771796,6.333546232125606 20.526715409372642,5.5889355499512465" class="siege-b"></polygon><polygon points="20.526715409372642,5.5889355499512465 19.689941077831254,11.200096094507614 30.24924698398777,12.284287983061267 31.08377344145795,6.291106056416599" class="siege-c"></polygon><polygon points="10.463290387625195,6.141371877227425 10.431914597693176,18.14572000561585 13.032569311771796,6.333546232125606" class="siege-c"></polygon><polygon points="13.032569311771796,6.333546232125606 10.431914597693176,18.14572000561585 13.020766875751697,12.030285846713006" class="siege-c"></polygon><polygon points="31.628094645038885,2.3820397007818412 31.08377344145795,6.291106056416599 33.10636911354407,6.215750833724073 33.359767760738556,2.9120603047807534" class="siege-a"></polygon><polygon points="19.689941077831254,11.200096094507614 13.020766875751697,12.030285846713006 23.707291771264,13.235448379398111 30.24924698398777,12.284287983061267" class="siege-b"></polygon><polygon points="26.949934563988265,7.374521228626816 36.09048662290143,6.410548691713222 33.10636911354407,6.215750833724073" class="siege-b"></polygon><polygon points="10.431914597693176,18.14572000561585 26.860109426259285,20.71233980798817 23.707291771264,13.235448379398111 13.020766875751697,12.030285846713006" class="siege-c"></polygon><polygon points="33.10636911354407,6.215750833724073 31.08377344145795,6.291106056416599 23.886769956131822,7.145406933099654 26.949934563988265,7.374521228626816" class="siege-b"></polygon><polygon points="26.860109426259285,20.71233980798817 35.97962358975751,18.706121764850526 36.09048662290143,6.410548691713222 26.949934563988265,7.374521228626816" class="siege-a"></polygon><polygon points="23.707291771264,13.235448379398111 26.949934563988265,7.374521228626816 23.886769956131822,7.145406933099654" class="siege-c"></polygon><polygon points="23.707291771264,13.235448379398111 26.860109426259285,20.71233980798817 26.949934563988265,7.374521228626816" class="siege-c"></polygon><polygon points="35.08944180827504,13.342865587468415 36.646513987125154,13.434419640643085 36.04179515708002,13.75356854219019 34.46081956445262,13.65880524895615" class="ipod"></polygon><polygon points="34.464803228906355,13.196935812738822 36.04598287144226,13.289350076042512 36.650699061534155,12.978112798748814 35.09342903837181,12.888828577002695" class="ipod"></polygon><polygon points="38.06006040497756,21.842490507132894 30.238710571199697,20.81428375993383 34.080417255644576,19.698453081753122 41.69600960219552,20.63769769738243" class="etabli"></polygon><polygon points="38.130969292705736,14.413961704401231 41.77018514214827,13.54242581452769 34.1388089413418,12.863084486027088 30.292876864683524,13.670152239097709" class="etabli-a"></polygon><polygon points="36.650699061534155,12.978112798748814 36.04598287144226,13.289350076042512 36.04179515708002,13.75356854219019 36.646513987125154,13.434419640643085" class="ipod"></polygon><polygon points="66.8494241954358,-18.526350593245663 34.30077775513627,-15.283130656027245 34.142320420950256,3.3072100025134903 66.44484305935102,5.849082740367242" class="vitre"></polygon><polygon points="36.04598287144226,13.289350076042512 34.464803228906355,13.196935812738822 34.46081956445262,13.65880524895615 36.04179515708002,13.75356854219019" class="ipod"></polygon><polygon points="41.77018514214827,13.54242581452769 38.130969292705736,14.413961704401231 38.06006040497756,21.842490507132894 41.69600960219552,20.63769769738243" class="etabli"></polygon><polygon points="38.130969292705736,14.413961704401231 30.292876864683524,13.670152239097709 30.238710571199697,20.81428375993383 38.06006040497756,21.842490507132894" class="etabli-b"></polygon><polygon points="9.903566786325202,14.011824819415374 11.498895158128581,14.223052034067706 8.877986938001799,14.114056842453389" class="HARDwhite"></polygon><polygon points="8.877986938001799,14.114056842453389 9.310873153566956,14.00316719608153 9.903566786325202,14.011824819415374" class="HARDwhite"></polygon><polygon points="9.903566786325202,14.011824819415374 10.51514538005823,14.120059998831538 11.498895158128581,14.223052034067706" class="HARDwhite"></polygon><polygon points="9.310873153566956,14.00316719608153 8.877986938001799,14.114056842453389 8.229197734688897,14.467134144457944" class="HARDwhite"></polygon><polygon points="9.842347826106232,9.460324703680701 11.053549682998305,12.471215704425264 10.074834972152331,11.712978791897253" class="HARDwhite"></polygon><polygon points="9.630217021666217,11.168967940874325 9.842347826106232,9.460324703680701 8.49312884252136,12.384263017042088" class="HARDwhite"></polygon><polygon points="11.053549682998305,12.471215704425264 9.630217021666217,11.168967940874325 8.49312884252136,12.384263017042088" class="HARDblack"></polygon><polygon points="11.498895158128581,14.223052034067706 10.51514538005823,14.120059998831538 10.895296772106832,14.580229300385131" class="HARDwhite"></polygon><polygon points="11.392026924542256,15.265841794225027 11.498895158128581,14.223052034067706 10.895296772106832,14.580229300385131 10.825992372814538,15.617897919430368" class="HARDwhite"></polygon><polygon points="8.49312884252136,12.384263017042088 9.310873153566956,14.00316719608153 9.84700656645899,14.135125130171357 9.555501999539018,12.574106483341719" class="HARDwhite"></polygon><polygon points="9.84700656645899,14.135125130171357 9.310873153566956,14.00316719608153 8.229197734688897,14.467134144457944" class="HARDwhite"></polygon><polygon points="11.053549682998305,12.471215704425264 9.842347826106232,9.460324703680701 9.630217021666217,11.168967940874325" class="HARDwhite"></polygon><polygon points="9.84700656645899,14.135125130171357 10.51514538005823,14.120059998831538 11.053549682998305,12.471215704425264 9.555501999539018,12.574106483341719" class="HARDwhite"></polygon><polygon points="8.49312884252136,12.384263017042088 9.555501999539018,12.574106483341719 9.603223458463088,11.883413351459321" class="HARDwhite"></polygon><polygon points="10.895296772106832,14.580229300385131 10.51514538005823,14.120059998831538 9.84700656645899,14.135125130171357" class="HARDwhite"></polygon><polygon points="9.603223458463088,11.883413351459321 9.555501999539018,12.574106483341719 11.053549682998305,12.471215704425264" class="HARDwhite"></polygon><polygon points="8.229197734688897,14.467134144457944 10.895296772106832,14.580229300385131 9.84700656645899,14.135125130171357" class="HARDwhite"></polygon><polygon points="8.333511737707553,15.506516626250411 10.825992372814538,15.617897919430368 10.895296772106832,14.580229300385131 8.229197734688897,14.467134144457944" class="HARDwhite"></polygon><polygon points="13.403949755525195,17.805503394012465 24.19053442597849,15.481397207879777 9.058308464139254,13.854489221628493 -2.3514170030055705,15.804414133170608" class="etabli-a"></polygon><polygon points="9.435716127516057,12.158664443156178 8.79395984588784,12.21997663337665 8.994661785701819,12.151644808879153 9.665417345701345,12.073788815087887" class="pc"></polygon><polygon points="11.691918427509885,16.252969439276132 11.99452411096189,14.776125920822977 11.453650328983537,14.949516350222147" class="pc"></polygon><polygon points="9.869174405300864,12.036910808556392 9.435716127516057,12.158664443156178 9.665417345701345,12.073788815087887 10.077889213999802,11.981250600861774" class="pc"></polygon><polygon points="11.216992615793691,10.43268511388509 11.124671360773114,9.536364892042029 10.399140412311729,9.906572758103785" class="pc"></polygon><polygon points="11.453650328983537,14.949516350222147 11.99452411096189,14.776125920822977 11.050588435691738,14.160633335315692" class="pc"></polygon><polygon points="8.332823712525132,14.94125895897616 9.524382178595983,14.158827072871336 9.350546514275994,14.063184883910012 8.900740713626975,14.768012115182573" class="pc"></polygon><polygon points="9.855563219582859,10.675709684586904 9.36713863266039,10.67670424046495 8.602961306583204,11.727509589919402" class="pc"></polygon><polygon points="9.350546514275994,14.063184883910012 9.524382178595983,14.158827072871336 9.455050295190905,13.393590633738018 9.123404571748814,13.260223838607294" class="pc"></polygon><polygon points="9.435716127516057,12.158664443156178 9.821725630704213,11.633578531564464 8.79395984588784,12.21997663337665" class="pc"></polygon><polygon points="9.821725630704213,11.633578531564464 9.855563219582859,10.675709684586904 8.602961306583204,11.727509589919402 8.79395984588784,12.21997663337665" class="pc"></polygon><polygon points="11.554003342907635,12.827507377012582 11.269134395797002,12.954964362786663 11.401527340096592,11.623288776767387 11.791230749378316,11.773312317735298" class="pc"></polygon><polygon points="11.216992615793691,10.43268511388509 11.463604014603899,10.3355531500237 11.791230749378316,11.773312317735298 11.401527340096592,11.623288776767387" class="pc"></polygon><polygon points="9.435716127516057,12.158664443156178 9.869174405300864,12.036910808556392 9.821725630704213,11.633578531564464" class="pc"></polygon><polygon points="10.196701595977535,9.928108149688049 9.36713863266039,10.67670424046495 9.855563219582859,10.675709684586904" class="pc"></polygon><polygon points="9.455050295190905,13.393590633738018 10.060119171434723,12.08459779687787 9.869174405300864,12.036910808556392 9.123404571748814,13.260223838607294" class="pc"></polygon><polygon points="10.808114194702327,14.222143538783872 11.453650328983537,14.949516350222147 11.050588435691738,14.160633335315692" class="pc"></polygon><polygon points="10.722834386562047,10.53880927396302 11.463604014603899,10.3355531500237 10.399140412311729,9.906572758103785 10.196701595977535,9.928108149688049" class="pc"></polygon><polygon points="9.869174405300864,12.036910808556392 10.060119171434723,12.08459779687787 9.821725630704213,11.633578531564464" class="pc"></polygon><polygon points="11.050588435691738,14.160633335315692 11.554003342907635,12.827507377012582 10.95004387031525,13.09480428768865 10.808114194702327,14.222143538783872" class="pc"></polygon><polygon points="10.536244220609024,9.616121719252495 10.196701595977535,9.928108149688049 9.855563219582859,10.675709684586904" class="pc"></polygon><polygon points="9.455050295190905,13.393590633738018 9.524382178595983,14.158827072871336 10.95004387031525,13.09480428768865" class="pc"></polygon><polygon points="8.332823712525132,14.94125895897616 9.612026629784529,15.033195845974921 9.524382178595983,14.158827072871336" class="pc"></polygon><polygon points="9.524382178595983,14.158827072871336 10.313975033679435,14.213102223191504 10.95004387031525,13.09480428768865" class="pc"></polygon><polygon points="8.332823712525132,14.94125895897616 8.632569143762783,16.40124146465711 9.612026629784529,15.033195845974921" class="pc"></polygon><polygon points="9.821725630704213,11.633578531564464 10.536244220609024,9.616121719252495 9.855563219582859,10.675709684586904" class="pc"></polygon><polygon points="9.455050295190905,13.393590633738018 10.95004387031525,13.09480428768865 10.060119171434723,12.08459779687787" class="pc"></polygon><polygon points="9.524382178595983,14.158827072871336 9.612026629784529,15.033195845974921 10.313975033679435,14.213102223191504" class="pc"></polygon><polygon points="10.313975033679435,14.213102223191504 10.808114194702327,14.222143538783872 10.95004387031525,13.09480428768865" class="pc"></polygon><polygon points="11.691918427509885,16.252969439276132 11.453650328983537,14.949516350222147 10.903149052057056,15.125989820193489 10.77751315306235,16.56657036089196" class="pc"></polygon><polygon points="10.060119171434723,12.08459779687787 10.846852302848427,11.800507138941088 9.821725630704213,11.633578531564464" class="pc"></polygon><polygon points="10.722834386562047,10.53880927396302 10.536244220609024,9.616121719252495 9.821725630704213,11.633578531564464" class="pc"></polygon><polygon points="10.722834386562047,10.53880927396302 10.846852302848427,11.800507138941088 11.791230749378316,11.773312317735298 11.463604014603899,10.3355531500237" class="pc"></polygon><polygon points="11.554003342907635,12.827507377012582 11.791230749378316,11.773312317735298 10.846852302848427,11.800507138941088 10.95004387031525,13.09480428768865" class="pc"></polygon><polygon points="10.95004387031525,13.09480428768865 10.846852302848427,11.800507138941088 10.060119171434723,12.08459779687787" class="pc"></polygon><polygon points="10.846852302848427,11.800507138941088 10.722834386562047,10.53880927396302 9.821725630704213,11.633578531564464" class="pc"></polygon><polygon points="10.903149052057056,15.125989820193489 11.453650328983537,14.949516350222147 10.808114194702327,14.222143538783872" class="pc"></polygon><polygon points="10.903149052057056,15.125989820193489 10.808114194702327,14.222143538783872 10.313975033679435,14.213102223191504" class="pc"></polygon><polygon points="10.77751315306235,16.56657036089196 10.903149052057056,15.125989820193489 9.612026629784529,15.033195845974921 8.632569143762783,16.40124146465711" class="pc"></polygon><polygon points="9.612026629784529,15.033195845974921 10.903149052057056,15.125989820193489 10.313975033679435,14.213102223191504" class="pc"></polygon><polygon points="51.013665547312655,11.987252939953354 48.8633069835224,11.006117854146972 48.70602830251424,23.874742878087613 50.83936466915306,25.644144575539727" class="pc"></polygon><polygon points="24.19053442597849,15.481397207879777 13.403949755525195,17.805503394012465 13.374653573926789,26.528974578117 24.143066601091686,23.31781868930997" class="etabli"></polygon><polygon points="51.013665547312655,11.987252939953354 60.03157408017303,12.092201091926784 57.3412953289678,11.099186037894954 48.8633069835224,11.006117854146972" class="bois-moyen"></polygon><polygon points="57.3412953289678,11.099186037894954 60.03157408017303,12.092201091926784 59.825192480952055,25.83336663008851 57.155651360159645,24.042613890089218" class="bois-moyen"></polygon><polygon points="13.403949755525195,17.805503394012465 -2.3514170030055705,15.804414133170608 -2.3467265452705934,23.76421934181833 13.374653573926789,26.528974578117" class="etabli-b"></polygon><polygon points="60.03157408017303,12.092201091926784 51.013665547312655,11.987252939953354 50.83936466915306,25.644144575539727 59.825192480952055,25.83336663008851" class="bois-moyen"></polygon><polygon points="33.83946564929932,9.767819140162223 31.694705484351232,10.13005392889275 47.567629136625996,11.204402153178526" class="siege-b"></polygon><polygon points="45.51556402706106,19.415168399298842 47.567629136625996,11.204402153178526 31.694705484351232,10.13005392889275 31.628701680485705,17.743508785907448" class="siege-a"></polygon><polygon points="33.83946564929932,9.767819140162223 47.567629136625996,11.204402153178526 54.50558775840134,11.30904438872376" class="siege-b"></polygon><polygon points="45.51556402706106,19.415168399298842 31.628701680485705,17.743508785907448 22.364981635414917,20.099451872090523 37.06959890886611,22.148289315847702" class="siege-b"></polygon><polygon points="54.26588932327678,28.889963944515593 54.50558775840134,11.30904438872376 52.695055781829886,11.75261868184633" class="siege-a"></polygon><polygon points="52.695055781829886,11.75261868184633 54.50558775840134,11.30904438872376 47.567629136625996,11.204402153178526" class="siege-b"></polygon><polygon points="53.57060882160852,6.898609440391385 48.94439587979979,5.695650487904891 40.71121286284628,6.911457490759848 45.68205988104634,8.285424808985532" class="siege-b"></polygon><polygon points="42.01691224827891,35.12548146719896 54.26588932327678,28.889963944515593 52.695055781829886,11.75261868184633 44.63805771977698,13.72654716151492" class="siege-a"></polygon><polygon points="44.63805771977698,13.72654716151492 39.24711441940795,13.037377339866966 22.284028443088634,11.719445690311714 19.52096802218611,12.186105613468289" class="siege-b"></polygon><polygon points="44.63805771977698,13.72654716151492 52.695055781829886,11.75261868184633 53.57060882160852,6.898609440391385 45.68205988104634,8.285424808985532" class="siege-a"></polygon><polygon points="19.430494158472534,30.71049550440859 42.01691224827891,35.12548146719896 42.23694522811472,14.314812414653485 19.52096802218611,12.186105613468289" class="siege-a"></polygon><polygon points="19.52096802218611,12.186105613468289 42.23694522811472,14.314812414653485 44.63805771977698,13.72654716151492" class="siege-b"></polygon><polygon points="40.71121286284628,6.911457490759848 39.24711441940795,13.037377339866966 44.63805771977698,13.72654716151492 45.68205988104634,8.285424808985532" class="siege-a"></polygon><polygon points="42.01691224827891,35.12548146719896 44.63805771977698,13.72654716151492 42.23694522811472,14.314812414653485" class="siege-a"></polygon><polygon points="16.769524728913343,18.436613274995548 27.39586680701208,17.813256853132312 21.919352603818595,16.150019593122046 11.952231753188348,16.68430618087097" class="bois-moyen"></polygon><polygon points="16.769524728913343,18.436613274995548 11.952231753188348,16.68430618087097 11.900078010271963,34.10516499093774 16.690435039085017,37.25756340181558" class="bois-moyen"></polygon><polygon points="27.39586680701208,17.813256853132312 16.769524728913343,18.436613274995548 16.690435039085017,37.25756340181558 27.270104850095368,36.13640913784515" class="bois-moyen"></polygon></g></svg>
 
